<svg width="45" height="40" viewBox="0 0 45 40" fill="none" xmlns="http://www.w3.org/2000/svg">
<path d="M42.5 20C42.5 30.7696 33.7696 39.5 23 39.5C12.2304 39.5 3.5 30.7695 3.5 20C3.5 9.23044 12.2305 0.499997 23 0.499998C33.7696 0.499999 42.5 9.23045 42.5 20Z" stroke="#646464"/>
<path d="M15.9393 18.9393C15.3536 19.5251 15.3536 20.4749 15.9393 21.0607L25.4853 30.6066C26.0711 31.1924 27.0208 31.1924 27.6066 30.6066C28.1924 30.0208 28.1924 29.0711 27.6066 28.4853L19.1213 20L27.6066 11.5147C28.1924 10.9289 28.1924 9.97919 27.6066 9.3934C27.0208 8.80761 26.0711 8.80761 25.4853 9.3934L15.9393 18.9393ZM19 18.5L17 18.5L17 21.5L19 21.5L19 18.5Z" fill="white"/>
</svg>
