<?xml version="1.0" encoding="UTF-8" standalone="no"?>
<svg width="99.8361mm" height="152.753mm"
 viewBox="0 0 283 433"
 xmlns="http://www.w3.org/2000/svg" xmlns:xlink="http://www.w3.org/1999/xlink"  version="1.2" baseProfile="tiny">
<title>dorico</title>
<desc>Dorico</desc>
<defs>
</defs>
<g fill="none" stroke="black" stroke-width="1" fill-rule="evenodd" stroke-linecap="square" stroke-linejoin="bevel" >

<g fill="none" stroke="#000000" stroke-opacity="1" stroke-width="0.489" stroke-linecap="butt" stroke-linejoin="miter" stroke-miterlimit="2" transform="matrix(1,0,0,1,0,-17.7097)"
font-family=".AppleSystemUIFont" font-size="13" font-weight="400" font-style="normal" 
>
<polyline fill="none" vector-effect="none" points="92.955,138.868 283.46,138.868 " />
<polyline fill="none" vector-effect="none" points="92.955,127.132 283.46,127.132 " />
<polyline fill="none" vector-effect="none" points="92.955,123.22 283.46,123.22 " />
</g>

<g fill="none" stroke="#000000" stroke-opacity="1" stroke-width="0.815" stroke-linecap="butt" stroke-linejoin="miter" stroke-miterlimit="2" transform="matrix(1,0,0,1,0,-17.7097)"
font-family=".AppleSystemUIFont" font-size="13" font-weight="400" font-style="normal" 
>
<polyline fill="none" vector-effect="none" points="92.955,84.1 283.46,84.1 " />
<polyline fill="none" vector-effect="none" points="92.955,77.58 283.46,77.58 " />
<polyline fill="none" vector-effect="none" points="92.955,58.02 283.46,58.02 " />
<polyline fill="none" vector-effect="none" points="92.955,71.06 283.46,71.06 " />
</g>

<g fill="none" stroke="#000000" stroke-opacity="1" stroke-width="0.489" stroke-linecap="butt" stroke-linejoin="miter" stroke-miterlimit="2" transform="matrix(1,0,0,1,0,-17.7097)"
font-family=".AppleSystemUIFont" font-size="13" font-weight="400" font-style="normal" 
>
<polyline fill="none" vector-effect="none" points="92.955,134.956 283.46,134.956 " />
<polyline fill="none" vector-effect="none" points="92.955,131.044 283.46,131.044 " />
</g>

<g fill="none" stroke="#000000" stroke-opacity="1" stroke-width="0.815" stroke-linecap="butt" stroke-linejoin="miter" stroke-miterlimit="2" transform="matrix(1,0,0,1,0,-17.7097)"
font-family=".AppleSystemUIFont" font-size="13" font-weight="400" font-style="normal" 
>
<polyline fill="none" vector-effect="none" points="92.955,64.54 283.46,64.54 " />
</g>

<g fill="none" stroke="#000000" stroke-opacity="1" stroke-width="1.304" stroke-linecap="butt" stroke-linejoin="miter" stroke-miterlimit="2" transform="matrix(1,0,0,1,0,-17.7097)"
font-family=".AppleSystemUIFont" font-size="13" font-weight="400" font-style="normal" 
>
<polyline fill="none" vector-effect="none" points="282.808,57.6125 282.808,84.5075 " />
<polyline fill="none" vector-effect="none" points="282.808,122.975 282.808,139.112 " />
<polyline fill="none" vector-effect="none" points="92.303,57.6125 92.303,139.112 " />
</g>

<g fill="none" stroke="#000000" stroke-opacity="1" stroke-width="0.7824" stroke-linecap="butt" stroke-linejoin="miter" stroke-miterlimit="2" transform="matrix(1,0,0,1,0,-17.7097)"
font-family=".AppleSystemUIFont" font-size="13" font-weight="400" font-style="normal" 
>
<polyline fill="none" vector-effect="none" points="154.186,59.5117 154.186,79.6142 " />
<polyline fill="none" vector-effect="none" points="176.336,52.9917 176.336,73.0942 " />
<polyline fill="none" vector-effect="none" points="198.486,58.02 198.486,79.6142 " />
<polyline fill="none" vector-effect="none" points="229.807,51.7608 229.807,73.0942 " />
<polyline fill="none" vector-effect="none" points="251.957,58.02 251.957,79.6142 " />
</g>

<g fill="none" stroke="#000000" stroke-opacity="1" stroke-width="1" stroke-linecap="square" stroke-linejoin="bevel" transform="matrix(0.5,0,0,0.5,120.18,20.7503)"
font-family="Bravura Text" font-size="39" font-weight="400" font-style="normal" 
>
</g>

<g fill="#000000" fill-opacity="1" stroke="none" transform="matrix(0.5,0,0,0.5,120.18,20.7503)"
font-family="Bravura Text" font-size="39" font-weight="400" font-style="normal" 
>
<path vector-effect="none" fill-rule="nonzero" d="M9.438,-8.268 C8.814,-8.814 7.956,-9.087 6.942,-9.087 C3.081,-9.087 0,-6.24 0,-3.198 C0,-1.365 1.482,-0.273 3.393,-0.273 C6.513,-0.273 10.374,-3.198 10.374,-6.162 L10.374,-26.13 L9.438,-26.13 L9.438,-8.268"/>
</g>

<g fill="none" stroke="#000000" stroke-opacity="1" stroke-width="1" stroke-linecap="square" stroke-linejoin="bevel" transform="matrix(0.5,0,0,0.5,120.18,20.7503)"
font-family="Bravura Text" font-size="39" font-weight="400" font-style="normal" 
>
<text fill="#000000" fill-opacity="1" stroke="none" xml:space="preserve" x="0" y="0" font-family=".AppleSystemUIFont" font-size="13" font-weight="400" font-style="normal" 
 ></text>
</g>

<g fill="none" stroke="#000000" stroke-opacity="1" stroke-width="1" stroke-linecap="square" stroke-linejoin="bevel" transform="matrix(0.5,0,0,0.5,146.03,63.1303)"
font-family="Bravura" font-size="52" font-weight="400" font-style="normal" 
>
</g>

<g fill="#000000" fill-opacity="1" stroke="none" transform="matrix(0.5,0,0,0.5,146.03,63.1303)"
font-family="Bravura" font-size="52" font-weight="400" font-style="normal" 
>
<path vector-effect="none" fill-rule="nonzero" d="M5.616,7.28 C10.764,7.28 17.108,2.496 17.108,-2.444 C17.108,-5.356 14.768,-7.28 11.44,-7.28 C5.096,-7.28 0,-2.548 0,2.444 C0,5.46 2.496,7.28 5.616,7.28 "/>
</g>

<g fill="none" stroke="#000000" stroke-opacity="1" stroke-width="1" stroke-linecap="square" stroke-linejoin="bevel" transform="matrix(0.5,0,0,0.5,146.03,63.1303)"
font-family="Bravura" font-size="52" font-weight="400" font-style="normal" 
>
<text fill="#000000" fill-opacity="1" stroke="none" xml:space="preserve" x="0" y="0" font-family=".AppleSystemUIFont" font-size="13" font-weight="400" font-style="normal" 
 ></text>
</g>

<g fill="none" stroke="#000000" stroke-opacity="1" stroke-width="1" stroke-linecap="square" stroke-linejoin="bevel" transform="matrix(0.5,0,0,0.5,168.18,56.6103)"
font-family="Bravura" font-size="52" font-weight="400" font-style="normal" 
>
</g>

<g fill="#000000" fill-opacity="1" stroke="none" transform="matrix(0.5,0,0,0.5,168.18,56.6103)"
font-family="Bravura" font-size="52" font-weight="400" font-style="normal" 
>
<path vector-effect="none" fill-rule="nonzero" d="M5.616,7.28 C10.764,7.28 17.108,2.496 17.108,-2.444 C17.108,-5.356 14.768,-7.28 11.44,-7.28 C5.096,-7.28 0,-2.548 0,2.444 C0,5.46 2.496,7.28 5.616,7.28 "/>
</g>

<g fill="none" stroke="#000000" stroke-opacity="1" stroke-width="1" stroke-linecap="square" stroke-linejoin="bevel" transform="matrix(0.5,0,0,0.5,168.18,56.6103)"
font-family="Bravura" font-size="52" font-weight="400" font-style="normal" 
>
<text fill="#000000" fill-opacity="1" stroke="none" xml:space="preserve" x="0" y="0" font-family=".AppleSystemUIFont" font-size="13" font-weight="400" font-style="normal" 
 ></text>
</g>

<g fill="none" stroke="#000000" stroke-opacity="1" stroke-width="1" stroke-linecap="square" stroke-linejoin="bevel" transform="matrix(0.5,0,0,0.5,190.33,63.1303)"
font-family="Bravura" font-size="52" font-weight="400" font-style="normal" 
>
</g>

<g fill="#000000" fill-opacity="1" stroke="none" transform="matrix(0.5,0,0,0.5,190.33,63.1303)"
font-family="Bravura" font-size="52" font-weight="400" font-style="normal" 
>
<path vector-effect="none" fill-rule="nonzero" d="M5.616,7.28 C10.764,7.28 17.108,2.496 17.108,-2.444 C17.108,-5.356 14.768,-7.28 11.44,-7.28 C5.096,-7.28 0,-2.548 0,2.444 C0,5.46 2.496,7.28 5.616,7.28 "/>
</g>

<g fill="none" stroke="#000000" stroke-opacity="1" stroke-width="1" stroke-linecap="square" stroke-linejoin="bevel" transform="matrix(0.5,0,0,0.5,190.33,63.1303)"
font-family="Bravura" font-size="52" font-weight="400" font-style="normal" 
>
<text fill="#000000" fill-opacity="1" stroke="none" xml:space="preserve" x="0" y="0" font-family=".AppleSystemUIFont" font-size="13" font-weight="400" font-style="normal" 
 ></text>
</g>

<g fill="none" stroke="#000000" stroke-opacity="1" stroke-width="1" stroke-linecap="square" stroke-linejoin="bevel" transform="matrix(0.5,0,0,0.5,229.416,33.7903)"
font-family="Bravura" font-size="52" font-weight="400" font-style="normal" 
>
</g>

<g fill="#000000" fill-opacity="1" stroke="none" transform="matrix(0.5,0,0,0.5,229.416,33.7903)"
font-family="Bravura" font-size="52" font-weight="400" font-style="normal" 
>
<path vector-effect="none" fill-rule="nonzero" d="M12.376,41.08 C12.376,41.08 13.728,36.14 13.728,32.084 C13.728,25.584 11.024,19.448 7.748,14.248 C5.096,10.14 2.912,5.668 2.08,0.676 C1.924,-0.156 1.508,-0.468 0.988,-0.468 C0.416,-0.468 0,-0.312 0,0.312 L0,12.74 C3.432,13.364 8.372,20.436 10.244,24.856 C11.024,26.624 11.492,29.588 11.492,32.656 C11.492,34.996 11.128,37.44 10.244,39.78 C10.14,40.092 10.088,40.352 10.088,40.56 C10.088,41.392 10.608,41.86 10.92,42.068 C11.232,42.276 12.116,41.964 12.376,41.08 "/>
</g>

<g fill="none" stroke="#000000" stroke-opacity="1" stroke-width="1" stroke-linecap="square" stroke-linejoin="bevel" transform="matrix(0.5,0,0,0.5,229.416,33.7903)"
font-family="Bravura" font-size="52" font-weight="400" font-style="normal" 
>
<text fill="#000000" fill-opacity="1" stroke="none" xml:space="preserve" x="0" y="0" font-family=".AppleSystemUIFont" font-size="13" font-weight="400" font-style="normal" 
 ></text>
</g>

<g fill="none" stroke="#000000" stroke-opacity="1" stroke-width="1" stroke-linecap="square" stroke-linejoin="bevel" transform="matrix(0.5,0,0,0.5,221.651,56.6103)"
font-family="Bravura" font-size="52" font-weight="400" font-style="normal" 
>
</g>

<g fill="#000000" fill-opacity="1" stroke="none" transform="matrix(0.5,0,0,0.5,221.651,56.6103)"
font-family="Bravura" font-size="52" font-weight="400" font-style="normal" 
>
<path vector-effect="none" fill-rule="nonzero" d="M5.616,7.28 C10.764,7.28 17.108,2.496 17.108,-2.444 C17.108,-5.356 14.768,-7.28 11.44,-7.28 C5.096,-7.28 0,-2.548 0,2.444 C0,5.46 2.496,7.28 5.616,7.28 "/>
</g>

<g fill="none" stroke="#000000" stroke-opacity="1" stroke-width="1" stroke-linecap="square" stroke-linejoin="bevel" transform="matrix(0.5,0,0,0.5,221.651,56.6103)"
font-family="Bravura" font-size="52" font-weight="400" font-style="normal" 
>
<text fill="#000000" fill-opacity="1" stroke="none" xml:space="preserve" x="0" y="0" font-family=".AppleSystemUIFont" font-size="13" font-weight="400" font-style="normal" 
 ></text>
</g>

<g fill="none" stroke="#000000" stroke-opacity="1" stroke-width="1" stroke-linecap="square" stroke-linejoin="bevel" transform="matrix(0.5,0,0,0.5,243.801,63.1303)"
font-family="Bravura" font-size="52" font-weight="400" font-style="normal" 
>
</g>

<g fill="#000000" fill-opacity="1" stroke="none" transform="matrix(0.5,0,0,0.5,243.801,63.1303)"
font-family="Bravura" font-size="52" font-weight="400" font-style="normal" 
>
<path vector-effect="none" fill-rule="nonzero" d="M5.616,7.28 C10.764,7.28 17.108,2.496 17.108,-2.444 C17.108,-5.356 14.768,-7.28 11.44,-7.28 C5.096,-7.28 0,-2.548 0,2.444 C0,5.46 2.496,7.28 5.616,7.28 "/>
</g>

<g fill="none" stroke="#000000" stroke-opacity="1" stroke-width="1" stroke-linecap="square" stroke-linejoin="bevel" transform="matrix(0.5,0,0,0.5,243.801,63.1303)"
font-family="Bravura" font-size="52" font-weight="400" font-style="normal" 
>
<text fill="#000000" fill-opacity="1" stroke="none" xml:space="preserve" x="0" y="0" font-family=".AppleSystemUIFont" font-size="13" font-weight="400" font-style="normal" 
 ></text>
</g>

<g fill="none" stroke="#000000" stroke-opacity="1" stroke-width="1" stroke-linecap="square" stroke-linejoin="bevel" transform="matrix(0.5,0,0,0.5,146.03,117.246)"
font-family="Bravura" font-size="31" font-weight="400" font-style="normal" 
>
</g>

<g fill="#000000" fill-opacity="1" stroke="none" transform="matrix(0.5,0,0,0.5,146.03,117.246)"
font-family="Bravura" font-size="31" font-weight="400" font-style="normal" 
>
<path vector-effect="none" fill-rule="nonzero" d="M7.285,-4.247 C2.79,-4.247 0,-2.356 0,-0.062 C0,2.201 1.922,4.216 6.944,4.216 C12.462,4.216 14.229,2.294 14.229,-0.062 C14.229,-2.449 10.416,-4.247 7.285,-4.247 M6.417,-3.472 C8.711,-3.472 10.571,-0.992 10.571,1.054 C10.571,2.759 9.517,3.441 7.998,3.441 C5.766,3.441 3.627,0.868 3.627,-1.302 C3.627,-3.038 4.836,-3.472 6.417,-3.472 "/>
</g>

<g fill="none" stroke="#000000" stroke-opacity="1" stroke-width="1" stroke-linecap="square" stroke-linejoin="bevel" transform="matrix(0.5,0,0,0.5,146.03,117.246)"
font-family="Bravura" font-size="31" font-weight="400" font-style="normal" 
>
<text fill="#000000" fill-opacity="1" stroke="none" xml:space="preserve" x="0" y="0" font-family=".AppleSystemUIFont" font-size="13" font-weight="400" font-style="normal" 
 ></text>
</g>

<g fill="none" stroke="#000000" stroke-opacity="1" stroke-width="1" stroke-linecap="square" stroke-linejoin="bevel" transform="matrix(0.5,0,0,0.5,96.215,117.246)"
font-family="Bravura" font-size="31" font-weight="400" font-style="normal" 
>
</g>

<g fill="#000000" fill-opacity="1" stroke="none" transform="matrix(0.5,0,0,0.5,96.215,117.246)"
font-family="Bravura" font-size="31" font-weight="400" font-style="normal" 
>
<path vector-effect="none" fill-rule="nonzero" d="M11.656,-12.865 C11.594,-13.237 11.656,-13.268 11.842,-13.454 C15.19,-16.585 17.732,-20.522 17.732,-25.265 C17.732,-27.962 16.988,-30.628 15.717,-32.488 C15.252,-33.17 14.446,-34.038 14.105,-34.038 C13.671,-34.038 12.71,-33.232 12.09,-32.55 C9.796,-30.008 9.052,-26.133 9.052,-22.909 C9.052,-21.111 9.269,-19.096 9.486,-17.825 C9.548,-17.453 9.579,-17.391 9.207,-17.081 C4.743,-13.392 0,-8.959 0,-2.697 C0,2.697 3.689,7.812 11.284,7.812 C11.997,7.812 12.803,7.75 13.423,7.626 C13.764,7.564 13.826,7.533 13.888,7.905 C14.26,9.982 14.725,12.679 14.725,14.136 C14.725,18.724 11.625,19.282 9.796,19.282 C8.122,19.282 7.316,18.786 7.316,18.383 C7.316,18.166 7.595,18.073 8.308,17.856 C9.269,17.577 10.385,16.74 10.385,14.942 C10.385,13.237 9.3,11.78 7.409,11.78 C5.332,11.78 4.092,13.423 4.092,15.345 C4.092,17.36 5.301,20.398 9.982,20.398 C12.059,20.398 16.089,19.468 16.089,14.198 C16.089,12.431 15.531,9.486 15.19,7.564 C15.128,7.192 15.159,7.223 15.593,7.037 C18.724,5.797 20.801,3.162 20.801,-0.341 C20.801,-4.309 17.887,-7.812 13.33,-7.812 C12.524,-7.812 12.524,-7.812 12.431,-8.37 L11.656,-12.865 M14.57,-29.233 C15.593,-29.233 16.43,-28.396 16.43,-26.691 C16.43,-23.25 13.485,-20.46 11.036,-18.321 C10.819,-18.135 10.695,-18.166 10.633,-18.569 C10.509,-19.375 10.447,-20.429 10.447,-21.421 C10.447,-26.257 12.679,-29.233 14.57,-29.233 M11.191,-8.122 C11.284,-7.533 11.284,-7.564 10.726,-7.378 C7.998,-6.448 6.231,-3.999 6.231,-1.364 C6.231,1.426 7.688,3.41 9.796,4.123 C10.044,4.216 10.416,4.309 10.633,4.309 C10.881,4.309 11.005,4.154 11.005,3.968 C11.005,3.751 10.757,3.658 10.54,3.565 C9.238,3.007 8.308,1.674 8.308,0.248 C8.308,-1.519 9.517,-2.852 11.408,-3.379 C11.904,-3.503 11.966,-3.472 12.028,-3.131 L13.578,6.107 C13.64,6.448 13.609,6.448 13.144,6.541 C12.648,6.634 12.028,6.696 11.408,6.696 C5.983,6.696 2.48,3.689 2.48,-0.62 C2.48,-2.449 2.79,-4.898 5.363,-7.812 C7.223,-9.889 8.649,-11.036 10.106,-12.214 C10.416,-12.462 10.478,-12.431 10.54,-12.09 L11.191,-8.122 M13.33,-3.193 C13.268,-3.565 13.299,-3.658 13.671,-3.627 C16.182,-3.41 18.259,-1.302 18.259,1.426 C18.259,3.379 17.081,4.96 15.345,5.828 C14.973,6.014 14.911,6.014 14.849,5.642 L13.33,-3.193"/>
</g>

<g fill="none" stroke="#000000" stroke-opacity="1" stroke-width="1" stroke-linecap="square" stroke-linejoin="bevel" transform="matrix(0.5,0,0,0.5,96.215,117.246)"
font-family="Bravura" font-size="31" font-weight="400" font-style="normal" 
>
<text fill="#000000" fill-opacity="1" stroke="none" xml:space="preserve" x="0" y="0" font-family=".AppleSystemUIFont" font-size="13" font-weight="400" font-style="normal" 
 ></text>
</g>

<g fill="none" stroke="#000000" stroke-opacity="1" stroke-width="1" stroke-linecap="square" stroke-linejoin="bevel" transform="matrix(0.5,0,0,0.5,96.215,59.8703)"
font-family="Bravura" font-size="52" font-weight="400" font-style="normal" 
>
</g>

<g fill="#000000" fill-opacity="1" stroke="none" transform="matrix(0.5,0,0,0.5,96.215,59.8703)"
font-family="Bravura" font-size="52" font-weight="400" font-style="normal" 
>
<path vector-effect="none" fill-rule="nonzero" d="M19.552,-21.58 C19.448,-22.204 19.552,-22.256 19.864,-22.568 C25.48,-27.82 29.744,-34.424 29.744,-42.38 C29.744,-46.904 28.496,-51.376 26.364,-54.496 C25.584,-55.64 24.232,-57.096 23.66,-57.096 C22.932,-57.096 21.32,-55.744 20.28,-54.6 C16.432,-50.336 15.184,-43.836 15.184,-38.428 C15.184,-35.412 15.548,-32.032 15.912,-29.9 C16.016,-29.276 16.068,-29.172 15.444,-28.652 C7.956,-22.464 0,-15.028 0,-4.524 C0,4.524 6.188,13.104 18.928,13.104 C20.124,13.104 21.476,13 22.516,12.792 C23.088,12.688 23.192,12.636 23.296,13.26 C23.92,16.744 24.7,21.268 24.7,23.712 C24.7,31.408 19.5,32.344 16.432,32.344 C13.624,32.344 12.272,31.512 12.272,30.836 C12.272,30.472 12.74,30.316 13.936,29.952 C15.548,29.484 17.42,28.08 17.42,25.064 C17.42,22.204 15.6,19.76 12.428,19.76 C8.944,19.76 6.864,22.516 6.864,25.74 C6.864,29.12 8.892,34.216 16.744,34.216 C20.228,34.216 26.988,32.656 26.988,23.816 C26.988,20.852 26.052,15.912 25.48,12.688 C25.376,12.064 25.428,12.116 26.156,11.804 C31.408,9.724 34.892,5.304 34.892,-0.572 C34.892,-7.228 30.004,-13.104 22.36,-13.104 C21.008,-13.104 21.008,-13.104 20.852,-14.04 L19.552,-21.58 M24.44,-49.036 C26.156,-49.036 27.56,-47.632 27.56,-44.772 C27.56,-39 22.62,-34.32 18.512,-30.732 C18.148,-30.42 17.94,-30.472 17.836,-31.148 C17.628,-32.5 17.524,-34.268 17.524,-35.932 C17.524,-44.044 21.268,-49.036 24.44,-49.036 M18.772,-13.624 C18.928,-12.636 18.928,-12.688 17.992,-12.376 C13.416,-10.816 10.452,-6.708 10.452,-2.288 C10.452,2.392 12.896,5.72 16.432,6.916 C16.848,7.072 17.472,7.228 17.836,7.228 C18.252,7.228 18.46,6.968 18.46,6.656 C18.46,6.292 18.044,6.136 17.68,5.98 C15.496,5.044 13.936,2.808 13.936,0.416 C13.936,-2.548 15.964,-4.784 19.136,-5.668 C19.968,-5.876 20.072,-5.824 20.176,-5.252 L22.776,10.244 C22.88,10.816 22.828,10.816 22.048,10.972 C21.216,11.128 20.176,11.232 19.136,11.232 C10.036,11.232 4.16,6.188 4.16,-1.04 C4.16,-4.108 4.68,-8.216 8.996,-13.104 C12.116,-16.588 14.508,-18.512 16.952,-20.488 C17.472,-20.904 17.576,-20.852 17.68,-20.28 L18.772,-13.624 M22.36,-5.356 C22.256,-5.98 22.308,-6.136 22.932,-6.084 C27.144,-5.72 30.628,-2.184 30.628,2.392 C30.628,5.668 28.652,8.32 25.74,9.776 C25.116,10.088 25.012,10.088 24.908,9.464 L22.36,-5.356"/>
</g>

<g fill="none" stroke="#000000" stroke-opacity="1" stroke-width="1" stroke-linecap="square" stroke-linejoin="bevel" transform="matrix(0.5,0,0,0.5,96.215,59.8703)"
font-family="Bravura" font-size="52" font-weight="400" font-style="normal" 
>
<text fill="#000000" fill-opacity="1" stroke="none" xml:space="preserve" x="0" y="0" font-family=".AppleSystemUIFont" font-size="13" font-weight="400" font-style="normal" 
 ></text>
</g>

<g fill="none" stroke="#000000" stroke-opacity="1" stroke-width="1" stroke-linecap="square" stroke-linejoin="bevel" transform="matrix(0.5,0,0,0.5,125.36,20.7503)"
font-family="Academico" font-size="23" font-weight="400" font-style="normal" 
>
<text fill="#000000" fill-opacity="1" stroke="none" xml:space="preserve" x="0" y="0" font-family="Academico" font-size="23" font-weight="400" font-style="normal" 
 > = 100</text>
</g>

<g fill="none" stroke="#000000" stroke-opacity="1" stroke-width="1" stroke-linecap="square" stroke-linejoin="bevel" transform="matrix(0.5,0,0,0.5,119.876,109.459)"
font-family="Bravura" font-size="31" font-weight="400" font-style="normal" 
>
<text fill="#000000" fill-opacity="1" stroke="none" xml:space="preserve" x="0" y="0" font-family="Bravura" font-size="31" font-weight="400" font-style="normal" 
 ></text>
</g>

<g fill="none" stroke="#000000" stroke-opacity="1" stroke-width="1" stroke-linecap="square" stroke-linejoin="bevel" transform="matrix(0.5,0,0,0.5,119.876,117.217)"
font-family="Bravura" font-size="31" font-weight="400" font-style="normal" 
>
<text fill="#000000" fill-opacity="1" stroke="none" xml:space="preserve" x="0" y="0" font-family="Bravura" font-size="31" font-weight="400" font-style="normal" 
 ></text>
</g>

<g fill="none" stroke="#000000" stroke-opacity="1" stroke-width="1" stroke-linecap="square" stroke-linejoin="bevel" transform="matrix(0.5,0,0,0.5,119.665,46.8503)"
font-family="Bravura" font-size="52" font-weight="400" font-style="normal" 
>
<text fill="#000000" fill-opacity="1" stroke="none" xml:space="preserve" x="0" y="0" font-family="Bravura" font-size="52" font-weight="400" font-style="normal" 
 ></text>
</g>

<g fill="none" stroke="#000000" stroke-opacity="1" stroke-width="1" stroke-linecap="square" stroke-linejoin="bevel" transform="matrix(0.5,0,0,0.5,119.665,59.8737)"
font-family="Bravura" font-size="52" font-weight="400" font-style="normal" 
>
<text fill="#000000" fill-opacity="1" stroke="none" xml:space="preserve" x="0" y="0" font-family="Bravura" font-size="52" font-weight="400" font-style="normal" 
 ></text>
</g>

<g fill="#000000" fill-opacity="1" stroke="none" transform="matrix(1,0,0,1,0,-17.7097)"
font-family="Bravura" font-size="52" font-weight="400" font-style="normal" 
>
<path vector-effect="none" fill-rule="nonzero" d="M149.675,139.708 C171.256,153.042 258.33,153.694 280.115,140.685 L280.285,140.963 C258.322,154.737 171.248,154.085 149.501,139.984 L149.675,139.708"/>
</g>

<g fill="#000000" fill-opacity="1" stroke="none" transform="matrix(1,0,0,1,0,-17.7097)"
font-family="Bravura" font-size="52" font-weight="400" font-style="normal" 
>
<path vector-effect="none" fill-rule="nonzero" d="M153.794,61.28 L153.794,57.8817 L176.727,51.3617 L176.727,54.76 L153.794,61.28"/>
</g>

<g fill="#000000" fill-opacity="1" stroke="none" transform="matrix(0.5,0,0,0.5,6.52,43.6316)"
font-family="Bravura" font-size="52" font-weight="400" font-style="normal" 
>
</g>

<g fill="#000000" fill-opacity="1" stroke="#000000" stroke-opacity="1" stroke-width="1" stroke-linecap="square" stroke-linejoin="bevel" transform="matrix(0.5,0,0,0.5,6.52,43.6316)"
font-family="Bravura" font-size="52" font-weight="400" font-style="normal" 
>
<text fill="#000000" fill-opacity="1" stroke="none" xml:space="preserve" x="34.8438" y="25.4688" font-family="Academico" font-size="26.08" font-weight="400" font-style="normal" 
 >Soprano</text>
</g>

<g fill="#000000" fill-opacity="1" stroke="none" transform="matrix(0.5,0,0,0.5,6.52,43.6316)"
font-family="Bravura" font-size="52" font-weight="400" font-style="normal" 
>
</g>

<g fill="#000000" fill-opacity="1" stroke="none" transform="matrix(1,0,0,1,0,-17.7097)"
font-family="Bravura" font-size="52" font-weight="400" font-style="normal" 
>
</g>

<g fill="#000000" fill-opacity="1" stroke="none" transform="matrix(0.5,0,0,0.5,6.52,103.616)"
font-family="Bravura" font-size="52" font-weight="400" font-style="normal" 
>
</g>

<g fill="#000000" fill-opacity="1" stroke="#000000" stroke-opacity="1" stroke-width="1" stroke-linecap="square" stroke-linejoin="bevel" transform="matrix(0.5,0,0,0.5,6.52,103.616)"
font-family="Bravura" font-size="52" font-weight="400" font-style="normal" 
>
<text fill="#000000" fill-opacity="1" stroke="none" xml:space="preserve" x="0.25" y="25.4688" font-family="Academico" font-size="26.08" font-weight="400" font-style="normal" 
 >Electronics</text>
</g>

<g fill="#000000" fill-opacity="1" stroke="none" transform="matrix(0.5,0,0,0.5,6.52,103.616)"
font-family="Bravura" font-size="52" font-weight="400" font-style="normal" 
>
</g>

<g fill="#000000" fill-opacity="1" stroke="none" transform="matrix(1,0,0,1,0,-17.7097)"
font-family="Bravura" font-size="52" font-weight="400" font-style="normal" 
>
</g>

<g fill="#000000" fill-opacity="1" stroke="#000000" stroke-opacity="1" stroke-width="1" stroke-linecap="square" stroke-linejoin="bevel" transform="matrix(0.5,0,0,0.5,255.608,63.1303)"
font-family="Bravura" font-size="52" font-weight="400" font-style="normal" 
>
</g>

<g fill="#000000" fill-opacity="1" stroke="none" transform="matrix(0.5,0,0,0.5,255.608,63.1303)"
font-family="Bravura" font-size="52" font-weight="400" font-style="normal" 
>
<path vector-effect="none" fill-rule="nonzero" d="M5.2,0 C5.2,-1.456 4.056,-2.6 2.6,-2.6 C1.144,-2.6 0,-1.456 0,0 C0,1.456 1.144,2.6 2.6,2.6 C4.056,2.6 5.2,1.456 5.2,0 "/>
</g>

<g fill="#000000" fill-opacity="1" stroke="#000000" stroke-opacity="1" stroke-width="1" stroke-linecap="square" stroke-linejoin="bevel" transform="matrix(0.5,0,0,0.5,255.608,63.1303)"
font-family="Bravura" font-size="52" font-weight="400" font-style="normal" 
>
<text fill="#000000" fill-opacity="1" stroke="none" xml:space="preserve" x="0" y="0" font-family=".AppleSystemUIFont" font-size="13" font-weight="400" font-style="normal" 
 ></text>
</g>

<g fill="#000000" fill-opacity="1" stroke="none" transform="matrix(1,0,0,1,0,-17.7097)"
font-family="Bravura" font-size="52" font-weight="400" font-style="normal" 
>
<path vector-effect="none" fill-rule="nonzero" d="M73.9764,229.255 C80.2071,234.359 88.1958,234.359 94.4266,229.255 L93.948,228.596 C88.1958,232.185 80.2071,232.185 74.4549,228.596 L73.9764,229.255"/>
</g>

<g fill="#000000" fill-opacity="1" stroke="#000000" stroke-opacity="1" stroke-width="0.489" stroke-linecap="butt" stroke-linejoin="miter" stroke-miterlimit="2" transform="matrix(1,0,0,1,0,-17.7097)"
font-family="Bravura" font-size="52" font-weight="400" font-style="normal" 
>
<polyline fill="none" vector-effect="none" points="0,284.916 283.46,284.916 " />
<polyline fill="none" vector-effect="none" points="0,273.18 283.46,273.18 " />
<polyline fill="none" vector-effect="none" points="0,269.268 283.46,269.268 " />
</g>

<g fill="#000000" fill-opacity="1" stroke="#000000" stroke-opacity="1" stroke-width="0.815" stroke-linecap="butt" stroke-linejoin="miter" stroke-miterlimit="2" transform="matrix(1,0,0,1,0,-17.7097)"
font-family="Bravura" font-size="52" font-weight="400" font-style="normal" 
>
<polyline fill="none" vector-effect="none" points="0,230.148 283.46,230.148 " />
<polyline fill="none" vector-effect="none" points="0,223.628 283.46,223.628 " />
<polyline fill="none" vector-effect="none" points="0,204.068 283.46,204.068 " />
<polyline fill="none" vector-effect="none" points="0,217.108 283.46,217.108 " />
</g>

<g fill="#000000" fill-opacity="1" stroke="#000000" stroke-opacity="1" stroke-width="0.489" stroke-linecap="butt" stroke-linejoin="miter" stroke-miterlimit="2" transform="matrix(1,0,0,1,0,-17.7097)"
font-family="Bravura" font-size="52" font-weight="400" font-style="normal" 
>
<polyline fill="none" vector-effect="none" points="0,281.004 283.46,281.004 " />
<polyline fill="none" vector-effect="none" points="0,277.092 283.46,277.092 " />
</g>

<g fill="#000000" fill-opacity="1" stroke="#000000" stroke-opacity="1" stroke-width="0.815" stroke-linecap="butt" stroke-linejoin="miter" stroke-miterlimit="2" transform="matrix(1,0,0,1,0,-17.7097)"
font-family="Bravura" font-size="52" font-weight="400" font-style="normal" 
>
<polyline fill="none" vector-effect="none" points="0,210.588 283.46,210.588 " />
</g>

<g fill="#000000" fill-opacity="1" stroke="#000000" stroke-opacity="1" stroke-width="1.304" stroke-linecap="butt" stroke-linejoin="miter" stroke-miterlimit="2" transform="matrix(1,0,0,1,0,-17.7097)"
font-family="Bravura" font-size="52" font-weight="400" font-style="normal" 
>
<polyline fill="none" vector-effect="none" points="158.75,203.66 158.75,230.555 " />
<polyline fill="none" vector-effect="none" points="158.75,269.023 158.75,285.16 " />
<polyline fill="none" vector-effect="none" points="282.808,203.66 282.808,230.555 " />
<polyline fill="none" vector-effect="none" points="282.808,269.023 282.808,285.16 " />
</g>

<g fill="#000000" fill-opacity="1" stroke="#000000" stroke-opacity="1" stroke-width="0.7824" stroke-linecap="butt" stroke-linejoin="miter" stroke-miterlimit="2" transform="matrix(1,0,0,1,0,-17.7097)"
font-family="Bravura" font-size="52" font-weight="400" font-style="normal" 
>
<polyline fill="none" vector-effect="none" points="43.531,199.178 43.531,219.142 " />
<polyline fill="none" vector-effect="none" points="78.0979,201.069 78.0979,222.402 " />
<polyline fill="none" vector-effect="none" points="98.0695,202.427 98.0695,222.402 " />
<polyline fill="none" vector-effect="none" points="118.041,204.057 118.041,225.662 " />
<polyline fill="none" vector-effect="none" points="138.013,201.623 138.013,222.402 " />
<polyline fill="none" vector-effect="none" points="177.348,199.178 177.348,219.142 " />
<polyline fill="none" vector-effect="none" points="205.589,201.623 205.589,222.402 " />
<polyline fill="none" vector-effect="none" points="233.83,199.178 233.83,219.142 " />
<polyline fill="none" vector-effect="none" points="262.071,196.733 262.071,215.882 " />
</g>

<g fill="#000000" fill-opacity="1" stroke="#000000" stroke-opacity="1" stroke-width="1" stroke-linecap="square" stroke-linejoin="bevel" transform="matrix(0.5,0,0,0.5,35.3753,202.658)"
font-family="Bravura" font-size="52" font-weight="400" font-style="normal" 
>
</g>

<g fill="#000000" fill-opacity="1" stroke="none" transform="matrix(0.5,0,0,0.5,35.3753,202.658)"
font-family="Bravura" font-size="52" font-weight="400" font-style="normal" 
>
<path vector-effect="none" fill-rule="nonzero" d="M5.616,7.28 C10.764,7.28 17.108,2.496 17.108,-2.444 C17.108,-5.356 14.768,-7.28 11.44,-7.28 C5.096,-7.28 0,-2.548 0,2.444 C0,5.46 2.496,7.28 5.616,7.28 "/>
</g>

<g fill="#000000" fill-opacity="1" stroke="#000000" stroke-opacity="1" stroke-width="1" stroke-linecap="square" stroke-linejoin="bevel" transform="matrix(0.5,0,0,0.5,35.3753,202.658)"
font-family="Bravura" font-size="52" font-weight="400" font-style="normal" 
>
<text fill="#000000" fill-opacity="1" stroke="none" xml:space="preserve" x="0" y="0" font-family=".AppleSystemUIFont" font-size="13" font-weight="400" font-style="normal" 
 ></text>
</g>

<g fill="#000000" fill-opacity="1" stroke="#000000" stroke-opacity="1" stroke-width="1" stroke-linecap="square" stroke-linejoin="bevel" transform="matrix(0.5,0,0,0.5,77.7067,183.098)"
font-family="Bravura" font-size="52" font-weight="400" font-style="normal" 
>
</g>

<g fill="#000000" fill-opacity="1" stroke="none" transform="matrix(0.5,0,0,0.5,77.7067,183.098)"
font-family="Bravura" font-size="52" font-weight="400" font-style="normal" 
>
<path vector-effect="none" fill-rule="nonzero" d="M12.376,41.08 C12.376,41.08 13.728,36.14 13.728,32.084 C13.728,25.584 11.024,19.448 7.748,14.248 C5.096,10.14 2.912,5.668 2.08,0.676 C1.924,-0.156 1.508,-0.468 0.988,-0.468 C0.416,-0.468 0,-0.312 0,0.312 L0,12.74 C3.432,13.364 8.372,20.436 10.244,24.856 C11.024,26.624 11.492,29.588 11.492,32.656 C11.492,34.996 11.128,37.44 10.244,39.78 C10.14,40.092 10.088,40.352 10.088,40.56 C10.088,41.392 10.608,41.86 10.92,42.068 C11.232,42.276 12.116,41.964 12.376,41.08 "/>
</g>

<g fill="#000000" fill-opacity="1" stroke="#000000" stroke-opacity="1" stroke-width="1" stroke-linecap="square" stroke-linejoin="bevel" transform="matrix(0.5,0,0,0.5,77.7067,183.098)"
font-family="Bravura" font-size="52" font-weight="400" font-style="normal" 
>
<text fill="#000000" fill-opacity="1" stroke="none" xml:space="preserve" x="0" y="0" font-family=".AppleSystemUIFont" font-size="13" font-weight="400" font-style="normal" 
 ></text>
</g>

<g fill="#000000" fill-opacity="1" stroke="#000000" stroke-opacity="1" stroke-width="1" stroke-linecap="square" stroke-linejoin="bevel" transform="matrix(0.5,0,0,0.5,69.9422,205.918)"
font-family="Bravura" font-size="52" font-weight="400" font-style="normal" 
>
</g>

<g fill="#000000" fill-opacity="1" stroke="none" transform="matrix(0.5,0,0,0.5,69.9422,205.918)"
font-family="Bravura" font-size="52" font-weight="400" font-style="normal" 
>
<path vector-effect="none" fill-rule="nonzero" d="M5.616,7.28 C10.764,7.28 17.108,2.496 17.108,-2.444 C17.108,-5.356 14.768,-7.28 11.44,-7.28 C5.096,-7.28 0,-2.548 0,2.444 C0,5.46 2.496,7.28 5.616,7.28 "/>
</g>

<g fill="#000000" fill-opacity="1" stroke="#000000" stroke-opacity="1" stroke-width="1" stroke-linecap="square" stroke-linejoin="bevel" transform="matrix(0.5,0,0,0.5,69.9422,205.918)"
font-family="Bravura" font-size="52" font-weight="400" font-style="normal" 
>
<text fill="#000000" fill-opacity="1" stroke="none" xml:space="preserve" x="0" y="0" font-family=".AppleSystemUIFont" font-size="13" font-weight="400" font-style="normal" 
 ></text>
</g>

<g fill="#000000" fill-opacity="1" stroke="#000000" stroke-opacity="1" stroke-width="1" stroke-linecap="square" stroke-linejoin="bevel" transform="matrix(0.5,0,0,0.5,89.9138,205.918)"
font-family="Bravura" font-size="52" font-weight="400" font-style="normal" 
>
</g>

<g fill="#000000" fill-opacity="1" stroke="none" transform="matrix(0.5,0,0,0.5,89.9138,205.918)"
font-family="Bravura" font-size="52" font-weight="400" font-style="normal" 
>
<path vector-effect="none" fill-rule="nonzero" d="M5.616,7.28 C10.764,7.28 17.108,2.496 17.108,-2.444 C17.108,-5.356 14.768,-7.28 11.44,-7.28 C5.096,-7.28 0,-2.548 0,2.444 C0,5.46 2.496,7.28 5.616,7.28 "/>
</g>

<g fill="#000000" fill-opacity="1" stroke="#000000" stroke-opacity="1" stroke-width="1" stroke-linecap="square" stroke-linejoin="bevel" transform="matrix(0.5,0,0,0.5,89.9138,205.918)"
font-family="Bravura" font-size="52" font-weight="400" font-style="normal" 
>
<text fill="#000000" fill-opacity="1" stroke="none" xml:space="preserve" x="0" y="0" font-family=".AppleSystemUIFont" font-size="13" font-weight="400" font-style="normal" 
 ></text>
</g>

<g fill="#000000" fill-opacity="1" stroke="#000000" stroke-opacity="1" stroke-width="1" stroke-linecap="square" stroke-linejoin="bevel" transform="matrix(0.5,0,0,0.5,109.885,209.178)"
font-family="Bravura" font-size="52" font-weight="400" font-style="normal" 
>
</g>

<g fill="#000000" fill-opacity="1" stroke="none" transform="matrix(0.5,0,0,0.5,109.885,209.178)"
font-family="Bravura" font-size="52" font-weight="400" font-style="normal" 
>
<path vector-effect="none" fill-rule="nonzero" d="M5.616,7.28 C10.764,7.28 17.108,2.496 17.108,-2.444 C17.108,-5.356 14.768,-7.28 11.44,-7.28 C5.096,-7.28 0,-2.548 0,2.444 C0,5.46 2.496,7.28 5.616,7.28 "/>
</g>

<g fill="#000000" fill-opacity="1" stroke="#000000" stroke-opacity="1" stroke-width="1" stroke-linecap="square" stroke-linejoin="bevel" transform="matrix(0.5,0,0,0.5,109.885,209.178)"
font-family="Bravura" font-size="52" font-weight="400" font-style="normal" 
>
<text fill="#000000" fill-opacity="1" stroke="none" xml:space="preserve" x="0" y="0" font-family=".AppleSystemUIFont" font-size="13" font-weight="400" font-style="normal" 
 ></text>
</g>

<g fill="#000000" fill-opacity="1" stroke="#000000" stroke-opacity="1" stroke-width="1" stroke-linecap="square" stroke-linejoin="bevel" transform="matrix(0.5,0,0,0.5,129.857,205.918)"
font-family="Bravura" font-size="52" font-weight="400" font-style="normal" 
>
</g>

<g fill="#000000" fill-opacity="1" stroke="none" transform="matrix(0.5,0,0,0.5,129.857,205.918)"
font-family="Bravura" font-size="52" font-weight="400" font-style="normal" 
>
<path vector-effect="none" fill-rule="nonzero" d="M5.616,7.28 C10.764,7.28 17.108,2.496 17.108,-2.444 C17.108,-5.356 14.768,-7.28 11.44,-7.28 C5.096,-7.28 0,-2.548 0,2.444 C0,5.46 2.496,7.28 5.616,7.28 "/>
</g>

<g fill="#000000" fill-opacity="1" stroke="#000000" stroke-opacity="1" stroke-width="1" stroke-linecap="square" stroke-linejoin="bevel" transform="matrix(0.5,0,0,0.5,129.857,205.918)"
font-family="Bravura" font-size="52" font-weight="400" font-style="normal" 
>
<text fill="#000000" fill-opacity="1" stroke="none" xml:space="preserve" x="0" y="0" font-family=".AppleSystemUIFont" font-size="13" font-weight="400" font-style="normal" 
 ></text>
</g>

<g fill="#000000" fill-opacity="1" stroke="#000000" stroke-opacity="1" stroke-width="1" stroke-linecap="square" stroke-linejoin="bevel" transform="matrix(0.5,0,0,0.5,169.192,202.658)"
font-family="Bravura" font-size="52" font-weight="400" font-style="normal" 
>
</g>

<g fill="#000000" fill-opacity="1" stroke="none" transform="matrix(0.5,0,0,0.5,169.192,202.658)"
font-family="Bravura" font-size="52" font-weight="400" font-style="normal" 
>
<path vector-effect="none" fill-rule="nonzero" d="M5.616,7.28 C10.764,7.28 17.108,2.496 17.108,-2.444 C17.108,-5.356 14.768,-7.28 11.44,-7.28 C5.096,-7.28 0,-2.548 0,2.444 C0,5.46 2.496,7.28 5.616,7.28 "/>
</g>

<g fill="#000000" fill-opacity="1" stroke="#000000" stroke-opacity="1" stroke-width="1" stroke-linecap="square" stroke-linejoin="bevel" transform="matrix(0.5,0,0,0.5,169.192,202.658)"
font-family="Bravura" font-size="52" font-weight="400" font-style="normal" 
>
<text fill="#000000" fill-opacity="1" stroke="none" xml:space="preserve" x="0" y="0" font-family=".AppleSystemUIFont" font-size="13" font-weight="400" font-style="normal" 
 ></text>
</g>

<g fill="#000000" fill-opacity="1" stroke="#000000" stroke-opacity="1" stroke-width="1" stroke-linecap="square" stroke-linejoin="bevel" transform="matrix(0.5,0,0,0.5,197.433,205.918)"
font-family="Bravura" font-size="52" font-weight="400" font-style="normal" 
>
</g>

<g fill="#000000" fill-opacity="1" stroke="none" transform="matrix(0.5,0,0,0.5,197.433,205.918)"
font-family="Bravura" font-size="52" font-weight="400" font-style="normal" 
>
<path vector-effect="none" fill-rule="nonzero" d="M5.616,7.28 C10.764,7.28 17.108,2.496 17.108,-2.444 C17.108,-5.356 14.768,-7.28 11.44,-7.28 C5.096,-7.28 0,-2.548 0,2.444 C0,5.46 2.496,7.28 5.616,7.28 "/>
</g>

<g fill="#000000" fill-opacity="1" stroke="#000000" stroke-opacity="1" stroke-width="1" stroke-linecap="square" stroke-linejoin="bevel" transform="matrix(0.5,0,0,0.5,197.433,205.918)"
font-family="Bravura" font-size="52" font-weight="400" font-style="normal" 
>
<text fill="#000000" fill-opacity="1" stroke="none" xml:space="preserve" x="0" y="0" font-family=".AppleSystemUIFont" font-size="13" font-weight="400" font-style="normal" 
 ></text>
</g>

<g fill="#000000" fill-opacity="1" stroke="#000000" stroke-opacity="1" stroke-width="1" stroke-linecap="square" stroke-linejoin="bevel" transform="matrix(0.5,0,0,0.5,225.674,202.658)"
font-family="Bravura" font-size="52" font-weight="400" font-style="normal" 
>
</g>

<g fill="#000000" fill-opacity="1" stroke="none" transform="matrix(0.5,0,0,0.5,225.674,202.658)"
font-family="Bravura" font-size="52" font-weight="400" font-style="normal" 
>
<path vector-effect="none" fill-rule="nonzero" d="M5.616,7.28 C10.764,7.28 17.108,2.496 17.108,-2.444 C17.108,-5.356 14.768,-7.28 11.44,-7.28 C5.096,-7.28 0,-2.548 0,2.444 C0,5.46 2.496,7.28 5.616,7.28 "/>
</g>

<g fill="#000000" fill-opacity="1" stroke="#000000" stroke-opacity="1" stroke-width="1" stroke-linecap="square" stroke-linejoin="bevel" transform="matrix(0.5,0,0,0.5,225.674,202.658)"
font-family="Bravura" font-size="52" font-weight="400" font-style="normal" 
>
<text fill="#000000" fill-opacity="1" stroke="none" xml:space="preserve" x="0" y="0" font-family=".AppleSystemUIFont" font-size="13" font-weight="400" font-style="normal" 
 ></text>
</g>

<g fill="#000000" fill-opacity="1" stroke="#000000" stroke-opacity="1" stroke-width="1" stroke-linecap="square" stroke-linejoin="bevel" transform="matrix(0.5,0,0,0.5,253.915,199.398)"
font-family="Bravura" font-size="52" font-weight="400" font-style="normal" 
>
</g>

<g fill="#000000" fill-opacity="1" stroke="none" transform="matrix(0.5,0,0,0.5,253.915,199.398)"
font-family="Bravura" font-size="52" font-weight="400" font-style="normal" 
>
<path vector-effect="none" fill-rule="nonzero" d="M5.616,7.28 C10.764,7.28 17.108,2.496 17.108,-2.444 C17.108,-5.356 14.768,-7.28 11.44,-7.28 C5.096,-7.28 0,-2.548 0,2.444 C0,5.46 2.496,7.28 5.616,7.28 "/>
</g>

<g fill="#000000" fill-opacity="1" stroke="#000000" stroke-opacity="1" stroke-width="1" stroke-linecap="square" stroke-linejoin="bevel" transform="matrix(0.5,0,0,0.5,253.915,199.398)"
font-family="Bravura" font-size="52" font-weight="400" font-style="normal" 
>
<text fill="#000000" fill-opacity="1" stroke="none" xml:space="preserve" x="0" y="0" font-family=".AppleSystemUIFont" font-size="13" font-weight="400" font-style="normal" 
 ></text>
</g>

<g fill="#000000" fill-opacity="1" stroke="#000000" stroke-opacity="1" stroke-width="1" stroke-linecap="square" stroke-linejoin="bevel" transform="matrix(0.5,0,0,0.5,35.3753,263.294)"
font-family="Bravura" font-size="31" font-weight="400" font-style="normal" 
>
</g>

<g fill="#000000" fill-opacity="1" stroke="none" transform="matrix(0.5,0,0,0.5,35.3753,263.294)"
font-family="Bravura" font-size="31" font-weight="400" font-style="normal" 
>
<path vector-effect="none" fill-rule="nonzero" d="M7.285,-4.247 C2.79,-4.247 0,-2.356 0,-0.062 C0,2.201 1.922,4.216 6.944,4.216 C12.462,4.216 14.229,2.294 14.229,-0.062 C14.229,-2.449 10.416,-4.247 7.285,-4.247 M6.417,-3.472 C8.711,-3.472 10.571,-0.992 10.571,1.054 C10.571,2.759 9.517,3.441 7.998,3.441 C5.766,3.441 3.627,0.868 3.627,-1.302 C3.627,-3.038 4.836,-3.472 6.417,-3.472 "/>
</g>

<g fill="#000000" fill-opacity="1" stroke="#000000" stroke-opacity="1" stroke-width="1" stroke-linecap="square" stroke-linejoin="bevel" transform="matrix(0.5,0,0,0.5,35.3753,263.294)"
font-family="Bravura" font-size="31" font-weight="400" font-style="normal" 
>
<text fill="#000000" fill-opacity="1" stroke="none" xml:space="preserve" x="0" y="0" font-family=".AppleSystemUIFont" font-size="13" font-weight="400" font-style="normal" 
 ></text>
</g>

<g fill="#000000" fill-opacity="1" stroke="#000000" stroke-opacity="1" stroke-width="1" stroke-linecap="square" stroke-linejoin="bevel" transform="matrix(0.5,0,0,0.5,169.192,263.294)"
font-family="Bravura" font-size="31" font-weight="400" font-style="normal" 
>
</g>

<g fill="#000000" fill-opacity="1" stroke="none" transform="matrix(0.5,0,0,0.5,169.192,263.294)"
font-family="Bravura" font-size="31" font-weight="400" font-style="normal" 
>
<path vector-effect="none" fill-rule="nonzero" d="M7.285,-4.247 C2.79,-4.247 0,-2.356 0,-0.062 C0,2.201 1.922,4.216 6.944,4.216 C12.462,4.216 14.229,2.294 14.229,-0.062 C14.229,-2.449 10.416,-4.247 7.285,-4.247 M6.417,-3.472 C8.711,-3.472 10.571,-0.992 10.571,1.054 C10.571,2.759 9.517,3.441 7.998,3.441 C5.766,3.441 3.627,0.868 3.627,-1.302 C3.627,-3.038 4.836,-3.472 6.417,-3.472 "/>
</g>

<g fill="#000000" fill-opacity="1" stroke="#000000" stroke-opacity="1" stroke-width="1" stroke-linecap="square" stroke-linejoin="bevel" transform="matrix(0.5,0,0,0.5,169.192,263.294)"
font-family="Bravura" font-size="31" font-weight="400" font-style="normal" 
>
<text fill="#000000" fill-opacity="1" stroke="none" xml:space="preserve" x="0" y="0" font-family=".AppleSystemUIFont" font-size="13" font-weight="400" font-style="normal" 
 ></text>
</g>

<g fill="#000000" fill-opacity="1" stroke="#000000" stroke-opacity="1" stroke-width="1" stroke-linecap="square" stroke-linejoin="bevel" transform="matrix(0.5,0,0,0.5,3.26,263.294)"
font-family="Bravura" font-size="31" font-weight="400" font-style="normal" 
>
</g>

<g fill="#000000" fill-opacity="1" stroke="none" transform="matrix(0.5,0,0,0.5,3.26,263.294)"
font-family="Bravura" font-size="31" font-weight="400" font-style="normal" 
>
<path vector-effect="none" fill-rule="nonzero" d="M11.656,-12.865 C11.594,-13.237 11.656,-13.268 11.842,-13.454 C15.19,-16.585 17.732,-20.522 17.732,-25.265 C17.732,-27.962 16.988,-30.628 15.717,-32.488 C15.252,-33.17 14.446,-34.038 14.105,-34.038 C13.671,-34.038 12.71,-33.232 12.09,-32.55 C9.796,-30.008 9.052,-26.133 9.052,-22.909 C9.052,-21.111 9.269,-19.096 9.486,-17.825 C9.548,-17.453 9.579,-17.391 9.207,-17.081 C4.743,-13.392 0,-8.959 0,-2.697 C0,2.697 3.689,7.812 11.284,7.812 C11.997,7.812 12.803,7.75 13.423,7.626 C13.764,7.564 13.826,7.533 13.888,7.905 C14.26,9.982 14.725,12.679 14.725,14.136 C14.725,18.724 11.625,19.282 9.796,19.282 C8.122,19.282 7.316,18.786 7.316,18.383 C7.316,18.166 7.595,18.073 8.308,17.856 C9.269,17.577 10.385,16.74 10.385,14.942 C10.385,13.237 9.3,11.78 7.409,11.78 C5.332,11.78 4.092,13.423 4.092,15.345 C4.092,17.36 5.301,20.398 9.982,20.398 C12.059,20.398 16.089,19.468 16.089,14.198 C16.089,12.431 15.531,9.486 15.19,7.564 C15.128,7.192 15.159,7.223 15.593,7.037 C18.724,5.797 20.801,3.162 20.801,-0.341 C20.801,-4.309 17.887,-7.812 13.33,-7.812 C12.524,-7.812 12.524,-7.812 12.431,-8.37 L11.656,-12.865 M14.57,-29.233 C15.593,-29.233 16.43,-28.396 16.43,-26.691 C16.43,-23.25 13.485,-20.46 11.036,-18.321 C10.819,-18.135 10.695,-18.166 10.633,-18.569 C10.509,-19.375 10.447,-20.429 10.447,-21.421 C10.447,-26.257 12.679,-29.233 14.57,-29.233 M11.191,-8.122 C11.284,-7.533 11.284,-7.564 10.726,-7.378 C7.998,-6.448 6.231,-3.999 6.231,-1.364 C6.231,1.426 7.688,3.41 9.796,4.123 C10.044,4.216 10.416,4.309 10.633,4.309 C10.881,4.309 11.005,4.154 11.005,3.968 C11.005,3.751 10.757,3.658 10.54,3.565 C9.238,3.007 8.308,1.674 8.308,0.248 C8.308,-1.519 9.517,-2.852 11.408,-3.379 C11.904,-3.503 11.966,-3.472 12.028,-3.131 L13.578,6.107 C13.64,6.448 13.609,6.448 13.144,6.541 C12.648,6.634 12.028,6.696 11.408,6.696 C5.983,6.696 2.48,3.689 2.48,-0.62 C2.48,-2.449 2.79,-4.898 5.363,-7.812 C7.223,-9.889 8.649,-11.036 10.106,-12.214 C10.416,-12.462 10.478,-12.431 10.54,-12.09 L11.191,-8.122 M13.33,-3.193 C13.268,-3.565 13.299,-3.658 13.671,-3.627 C16.182,-3.41 18.259,-1.302 18.259,1.426 C18.259,3.379 17.081,4.96 15.345,5.828 C14.973,6.014 14.911,6.014 14.849,5.642 L13.33,-3.193"/>
</g>

<g fill="#000000" fill-opacity="1" stroke="#000000" stroke-opacity="1" stroke-width="1" stroke-linecap="square" stroke-linejoin="bevel" transform="matrix(0.5,0,0,0.5,3.26,263.294)"
font-family="Bravura" font-size="31" font-weight="400" font-style="normal" 
>
<text fill="#000000" fill-opacity="1" stroke="none" xml:space="preserve" x="0" y="0" font-family=".AppleSystemUIFont" font-size="13" font-weight="400" font-style="normal" 
 ></text>
</g>

<g fill="#000000" fill-opacity="1" stroke="#000000" stroke-opacity="1" stroke-width="1" stroke-linecap="square" stroke-linejoin="bevel" transform="matrix(0.5,0,0,0.5,3.26,205.918)"
font-family="Bravura" font-size="52" font-weight="400" font-style="normal" 
>
</g>

<g fill="#000000" fill-opacity="1" stroke="none" transform="matrix(0.5,0,0,0.5,3.26,205.918)"
font-family="Bravura" font-size="52" font-weight="400" font-style="normal" 
>
<path vector-effect="none" fill-rule="nonzero" d="M19.552,-21.58 C19.448,-22.204 19.552,-22.256 19.864,-22.568 C25.48,-27.82 29.744,-34.424 29.744,-42.38 C29.744,-46.904 28.496,-51.376 26.364,-54.496 C25.584,-55.64 24.232,-57.096 23.66,-57.096 C22.932,-57.096 21.32,-55.744 20.28,-54.6 C16.432,-50.336 15.184,-43.836 15.184,-38.428 C15.184,-35.412 15.548,-32.032 15.912,-29.9 C16.016,-29.276 16.068,-29.172 15.444,-28.652 C7.956,-22.464 0,-15.028 0,-4.524 C0,4.524 6.188,13.104 18.928,13.104 C20.124,13.104 21.476,13 22.516,12.792 C23.088,12.688 23.192,12.636 23.296,13.26 C23.92,16.744 24.7,21.268 24.7,23.712 C24.7,31.408 19.5,32.344 16.432,32.344 C13.624,32.344 12.272,31.512 12.272,30.836 C12.272,30.472 12.74,30.316 13.936,29.952 C15.548,29.484 17.42,28.08 17.42,25.064 C17.42,22.204 15.6,19.76 12.428,19.76 C8.944,19.76 6.864,22.516 6.864,25.74 C6.864,29.12 8.892,34.216 16.744,34.216 C20.228,34.216 26.988,32.656 26.988,23.816 C26.988,20.852 26.052,15.912 25.48,12.688 C25.376,12.064 25.428,12.116 26.156,11.804 C31.408,9.724 34.892,5.304 34.892,-0.572 C34.892,-7.228 30.004,-13.104 22.36,-13.104 C21.008,-13.104 21.008,-13.104 20.852,-14.04 L19.552,-21.58 M24.44,-49.036 C26.156,-49.036 27.56,-47.632 27.56,-44.772 C27.56,-39 22.62,-34.32 18.512,-30.732 C18.148,-30.42 17.94,-30.472 17.836,-31.148 C17.628,-32.5 17.524,-34.268 17.524,-35.932 C17.524,-44.044 21.268,-49.036 24.44,-49.036 M18.772,-13.624 C18.928,-12.636 18.928,-12.688 17.992,-12.376 C13.416,-10.816 10.452,-6.708 10.452,-2.288 C10.452,2.392 12.896,5.72 16.432,6.916 C16.848,7.072 17.472,7.228 17.836,7.228 C18.252,7.228 18.46,6.968 18.46,6.656 C18.46,6.292 18.044,6.136 17.68,5.98 C15.496,5.044 13.936,2.808 13.936,0.416 C13.936,-2.548 15.964,-4.784 19.136,-5.668 C19.968,-5.876 20.072,-5.824 20.176,-5.252 L22.776,10.244 C22.88,10.816 22.828,10.816 22.048,10.972 C21.216,11.128 20.176,11.232 19.136,11.232 C10.036,11.232 4.16,6.188 4.16,-1.04 C4.16,-4.108 4.68,-8.216 8.996,-13.104 C12.116,-16.588 14.508,-18.512 16.952,-20.488 C17.472,-20.904 17.576,-20.852 17.68,-20.28 L18.772,-13.624 M22.36,-5.356 C22.256,-5.98 22.308,-6.136 22.932,-6.084 C27.144,-5.72 30.628,-2.184 30.628,2.392 C30.628,5.668 28.652,8.32 25.74,9.776 C25.116,10.088 25.012,10.088 24.908,9.464 L22.36,-5.356"/>
</g>

<g fill="#000000" fill-opacity="1" stroke="#000000" stroke-opacity="1" stroke-width="1" stroke-linecap="square" stroke-linejoin="bevel" transform="matrix(0.5,0,0,0.5,3.26,205.918)"
font-family="Bravura" font-size="52" font-weight="400" font-style="normal" 
>
<text fill="#000000" fill-opacity="1" stroke="none" xml:space="preserve" x="0" y="0" font-family=".AppleSystemUIFont" font-size="13" font-weight="400" font-style="normal" 
 ></text>
</g>

<g fill="#000000" fill-opacity="1" stroke="none" transform="matrix(1,0,0,1,0,-17.7097)"
font-family="Bravura" font-size="52" font-weight="400" font-style="normal" 
>
<path vector-effect="none" fill-rule="nonzero" d="M25.7328,286.784 C27.9995,290.185 36.558,289.533 38.2884,285.828 L38.5866,285.96 C36.6373,290.573 28.0787,291.225 25.4579,286.96 L25.7328,286.784"/>
</g>

<g fill="#000000" fill-opacity="1" stroke="none" transform="matrix(1,0,0,1,0,-17.7097)"
font-family="Bravura" font-size="52" font-weight="400" font-style="normal" 
>
<path vector-effect="none" fill-rule="nonzero" d="M39.5078,285.755 C61.5586,299.102 150.117,299.102 172.172,285.755 L172.344,286.033 C150.117,300.145 61.5586,300.145 39.336,286.033 L39.5078,285.755"/>
</g>

<g fill="#000000" fill-opacity="1" stroke="none" transform="matrix(1,0,0,1,0,-17.7097)"
font-family="Bravura" font-size="52" font-weight="400" font-style="normal" 
>
<path vector-effect="none" fill-rule="nonzero" d="M173.325,285.758 C190.958,297.172 262.27,297.824 280.112,286.735 L280.288,287.009 C262.261,298.867 190.948,298.215 173.144,286.03 L173.325,285.758"/>
</g>

<g fill="#000000" fill-opacity="1" stroke="none" transform="matrix(1,0,0,1,0,-17.7097)"
font-family="Bravura" font-size="52" font-weight="400" font-style="normal" 
>
<path vector-effect="none" fill-rule="nonzero" d="M97.6783,204.068 L97.6783,200.797 L118.432,202.427 L118.432,205.698 L97.6783,204.068"/>
</g>

<g fill="#000000" fill-opacity="1" stroke="#000000" stroke-opacity="1" stroke-width="1" stroke-linecap="square" stroke-linejoin="bevel" transform="matrix(0.5,0,0,0.5,47.1822,202.658)"
font-family="Bravura" font-size="52" font-weight="400" font-style="normal" 
>
</g>

<g fill="#000000" fill-opacity="1" stroke="none" transform="matrix(0.5,0,0,0.5,47.1822,202.658)"
font-family="Bravura" font-size="52" font-weight="400" font-style="normal" 
>
<path vector-effect="none" fill-rule="nonzero" d="M5.2,0 C5.2,-1.456 4.056,-2.6 2.6,-2.6 C1.144,-2.6 0,-1.456 0,0 C0,1.456 1.144,2.6 2.6,2.6 C4.056,2.6 5.2,1.456 5.2,0 "/>
</g>

<g fill="#000000" fill-opacity="1" stroke="#000000" stroke-opacity="1" stroke-width="1" stroke-linecap="square" stroke-linejoin="bevel" transform="matrix(0.5,0,0,0.5,47.1822,202.658)"
font-family="Bravura" font-size="52" font-weight="400" font-style="normal" 
>
<text fill="#000000" fill-opacity="1" stroke="none" xml:space="preserve" x="0" y="0" font-family=".AppleSystemUIFont" font-size="13" font-weight="400" font-style="normal" 
 ></text>
</g>

<g fill="#000000" fill-opacity="1" stroke="none" transform="matrix(1,0,0,1,0,-17.7097)"
font-family="Bravura" font-size="52" font-weight="400" font-style="normal" 
>
</g>

<g fill="#000000" fill-opacity="1" stroke="none" transform="matrix(0.5,0,0,0.5,0,162.053)"
font-family="Bravura" font-size="52" font-weight="400" font-style="normal" 
>
</g>

<g fill="#000000" fill-opacity="1" stroke="#000000" stroke-opacity="1" stroke-width="1" stroke-linecap="square" stroke-linejoin="bevel" transform="matrix(0.5,0,0,0.5,0,162.053)"
font-family="Bravura" font-size="52" font-weight="400" font-style="normal" 
>
<text fill="#000000" fill-opacity="1" stroke="none" xml:space="preserve" x="0" y="22.5313" font-family="Academico" font-size="23.472" font-weight="400" font-style="italic" 
 >2</text>
</g>

<g fill="#000000" fill-opacity="1" stroke="none" transform="matrix(0.5,0,0,0.5,0,162.053)"
font-family="Bravura" font-size="52" font-weight="400" font-style="normal" 
>
</g>

<g fill="#000000" fill-opacity="1" stroke="none" transform="matrix(1,0,0,1,0,-17.7097)"
font-family="Bravura" font-size="52" font-weight="400" font-style="normal" 
>
</g>

<g fill="#000000" fill-opacity="1" stroke="#000000" stroke-opacity="1" stroke-width="0.489" stroke-linecap="butt" stroke-linejoin="miter" stroke-miterlimit="2" transform="matrix(1,0,0,1,0,-17.7097)"
font-family="Bravura" font-size="52" font-weight="400" font-style="normal" 
>
<polyline fill="none" vector-effect="none" points="0,430.964 283.46,430.964 " />
<polyline fill="none" vector-effect="none" points="0,419.228 283.46,419.228 " />
<polyline fill="none" vector-effect="none" points="0,415.316 283.46,415.316 " />
</g>

<g fill="#000000" fill-opacity="1" stroke="#000000" stroke-opacity="1" stroke-width="0.815" stroke-linecap="butt" stroke-linejoin="miter" stroke-miterlimit="2" transform="matrix(1,0,0,1,0,-17.7097)"
font-family="Bravura" font-size="52" font-weight="400" font-style="normal" 
>
<polyline fill="none" vector-effect="none" points="0,376.196 283.46,376.196 " />
<polyline fill="none" vector-effect="none" points="0,369.676 283.46,369.676 " />
<polyline fill="none" vector-effect="none" points="0,350.116 283.46,350.116 " />
<polyline fill="none" vector-effect="none" points="0,363.156 283.46,363.156 " />
</g>

<g fill="#000000" fill-opacity="1" stroke="#000000" stroke-opacity="1" stroke-width="0.489" stroke-linecap="butt" stroke-linejoin="miter" stroke-miterlimit="2" transform="matrix(1,0,0,1,0,-17.7097)"
font-family="Bravura" font-size="52" font-weight="400" font-style="normal" 
>
<polyline fill="none" vector-effect="none" points="0,427.052 283.46,427.052 " />
<polyline fill="none" vector-effect="none" points="0,423.14 283.46,423.14 " />
</g>

<g fill="#000000" fill-opacity="1" stroke="#000000" stroke-opacity="1" stroke-width="0.815" stroke-linecap="butt" stroke-linejoin="miter" stroke-miterlimit="2" transform="matrix(1,0,0,1,0,-17.7097)"
font-family="Bravura" font-size="52" font-weight="400" font-style="normal" 
>
<polyline fill="none" vector-effect="none" points="0,356.636 283.46,356.636 " />
</g>

<g fill="#000000" fill-opacity="1" stroke="#000000" stroke-opacity="1" stroke-width="1.304" stroke-linecap="butt" stroke-linejoin="miter" stroke-miterlimit="2" transform="matrix(1,0,0,1,0,-17.7097)"
font-family="Bravura" font-size="52" font-weight="400" font-style="normal" 
>
<polyline fill="none" vector-effect="none" points="276.288,349.708 276.288,376.603 " />
</g>

<g fill="#000000" fill-opacity="1" stroke="#000000" stroke-opacity="1" stroke-width="3.26" stroke-linecap="butt" stroke-linejoin="miter" stroke-miterlimit="2" transform="matrix(1,0,0,1,0,-17.7097)"
font-family="Bravura" font-size="52" font-weight="400" font-style="normal" 
>
<polyline fill="none" vector-effect="none" points="281.83,349.708 281.83,376.603 " />
</g>

<g fill="#000000" fill-opacity="1" stroke="#000000" stroke-opacity="1" stroke-width="1.304" stroke-linecap="butt" stroke-linejoin="miter" stroke-miterlimit="2" transform="matrix(1,0,0,1,0,-17.7097)"
font-family="Bravura" font-size="52" font-weight="400" font-style="normal" 
>
<polyline fill="none" vector-effect="none" points="276.288,415.071 276.288,431.208 " />
</g>

<g fill="#000000" fill-opacity="1" stroke="#000000" stroke-opacity="1" stroke-width="3.26" stroke-linecap="butt" stroke-linejoin="miter" stroke-miterlimit="2" transform="matrix(1,0,0,1,0,-17.7097)"
font-family="Bravura" font-size="52" font-weight="400" font-style="normal" 
>
<polyline fill="none" vector-effect="none" points="281.83,415.071 281.83,431.208 " />
</g>

<g fill="#000000" fill-opacity="1" stroke="#000000" stroke-opacity="1" stroke-width="0.7824" stroke-linecap="butt" stroke-linejoin="miter" stroke-miterlimit="2" transform="matrix(1,0,0,1,0,-17.7097)"
font-family="Bravura" font-size="52" font-weight="400" font-style="normal" 
>
<polyline fill="none" vector-effect="none" points="43.531,342.781 43.531,361.93 " />
<polyline fill="none" vector-effect="none" points="103.6,345.226 103.6,365.19 " />
<polyline fill="none" vector-effect="none" points="163.654,350.116 163.654,371.71 " />
<polyline fill="none" vector-effect="none" points="223.723,347.671 223.723,368.45 " />
</g>

<g fill="#000000" fill-opacity="1" stroke="#000000" stroke-opacity="1" stroke-width="1" stroke-linecap="square" stroke-linejoin="bevel" transform="matrix(0.5,0,0,0.5,35.3753,345.446)"
font-family="Bravura" font-size="52" font-weight="400" font-style="normal" 
>
</g>

<g fill="#000000" fill-opacity="1" stroke="none" transform="matrix(0.5,0,0,0.5,35.3753,345.446)"
font-family="Bravura" font-size="52" font-weight="400" font-style="normal" 
>
<path vector-effect="none" fill-rule="nonzero" d="M5.616,7.28 C10.764,7.28 17.108,2.496 17.108,-2.444 C17.108,-5.356 14.768,-7.28 11.44,-7.28 C5.096,-7.28 0,-2.548 0,2.444 C0,5.46 2.496,7.28 5.616,7.28 "/>
</g>

<g fill="#000000" fill-opacity="1" stroke="#000000" stroke-opacity="1" stroke-width="1" stroke-linecap="square" stroke-linejoin="bevel" transform="matrix(0.5,0,0,0.5,35.3753,345.446)"
font-family="Bravura" font-size="52" font-weight="400" font-style="normal" 
>
<text fill="#000000" fill-opacity="1" stroke="none" xml:space="preserve" x="0" y="0" font-family=".AppleSystemUIFont" font-size="13" font-weight="400" font-style="normal" 
 ></text>
</g>

<g fill="#000000" fill-opacity="1" stroke="#000000" stroke-opacity="1" stroke-width="1" stroke-linecap="square" stroke-linejoin="bevel" transform="matrix(0.5,0,0,0.5,95.4444,348.706)"
font-family="Bravura" font-size="52" font-weight="400" font-style="normal" 
>
</g>

<g fill="#000000" fill-opacity="1" stroke="none" transform="matrix(0.5,0,0,0.5,95.4444,348.706)"
font-family="Bravura" font-size="52" font-weight="400" font-style="normal" 
>
<path vector-effect="none" fill-rule="nonzero" d="M5.616,7.28 C10.764,7.28 17.108,2.496 17.108,-2.444 C17.108,-5.356 14.768,-7.28 11.44,-7.28 C5.096,-7.28 0,-2.548 0,2.444 C0,5.46 2.496,7.28 5.616,7.28 "/>
</g>

<g fill="#000000" fill-opacity="1" stroke="#000000" stroke-opacity="1" stroke-width="1" stroke-linecap="square" stroke-linejoin="bevel" transform="matrix(0.5,0,0,0.5,95.4444,348.706)"
font-family="Bravura" font-size="52" font-weight="400" font-style="normal" 
>
<text fill="#000000" fill-opacity="1" stroke="none" xml:space="preserve" x="0" y="0" font-family=".AppleSystemUIFont" font-size="13" font-weight="400" font-style="normal" 
 ></text>
</g>

<g fill="#000000" fill-opacity="1" stroke="#000000" stroke-opacity="1" stroke-width="1" stroke-linecap="square" stroke-linejoin="bevel" transform="matrix(0.5,0,0,0.5,147.399,355.226)"
font-family="Bravura" font-size="52" font-weight="400" font-style="normal" 
>
</g>

<g fill="#000000" fill-opacity="1" stroke="none" transform="matrix(0.5,0,0,0.5,147.399,355.226)"
font-family="Bravura" font-size="52" font-weight="400" font-style="normal" 
>
<path vector-effect="none" fill-rule="nonzero" d="M12.324,-6.136 C12.688,-6.292 12.948,-6.708 12.948,-7.02 L12.948,-10.712 C12.948,-10.972 12.792,-11.128 12.584,-11.128 C12.48,-11.128 12.428,-11.128 12.324,-11.076 C12.324,-11.076 11.284,-10.66 11.024,-10.608 C10.66,-10.608 10.296,-10.868 10.296,-11.284 L10.296,-17.628 C10.296,-17.94 9.984,-18.2 9.568,-18.2 C9.048,-18.2 8.736,-17.94 8.736,-17.628 L8.736,-10.868 C8.684,-10.348 8.528,-9.672 8.06,-9.36 C7.436,-8.996 5.668,-8.268 4.784,-8.06 C4.316,-8.06 4.16,-8.684 4.16,-9.1 L4.16,-15.34 C4.16,-15.652 3.796,-15.912 3.432,-15.912 C2.912,-15.912 2.6,-15.652 2.6,-15.34 L2.6,-8.32 C2.6,-7.592 2.288,-7.072 1.976,-6.916 C1.664,-6.76 0.624,-6.344 0.624,-6.344 C0.26,-6.24 0,-5.824 0,-5.512 L0,-1.82 C0,-1.508 0.156,-1.352 0.468,-1.352 L0.572,-1.404 C0.624,-1.404 1.404,-1.716 1.82,-1.924 L1.872,-1.976 C2.288,-1.976 2.6,-1.456 2.6,-1.04 L2.6,4.108 C2.6,4.68 2.34,5.148 2.028,5.304 C1.716,5.408 0.624,5.876 0.624,5.876 C0.26,5.98 0,6.396 0,6.708 L0,10.4 C0,10.712 0.156,10.868 0.468,10.868 L0.572,10.816 C0.624,10.816 1.352,10.504 1.82,10.348 C1.872,10.296 1.924,10.296 1.976,10.296 C2.34,10.296 2.6,10.868 2.6,11.128 L2.6,17.524 C2.6,17.836 2.912,18.096 3.276,18.096 C3.796,18.096 4.16,17.836 4.16,17.524 L4.16,10.296 C4.16,9.62 4.42,9.256 4.68,9.152 L7.852,7.852 C7.852,7.852 7.904,7.852 7.904,7.852 L8.008,7.8 C8.476,7.8 8.736,8.424 8.736,8.736 L8.736,15.236 C8.736,15.548 9.048,15.808 9.412,15.808 C9.984,15.808 10.296,15.548 10.296,15.236 L10.296,7.852 C10.296,7.436 10.504,6.812 10.868,6.656 C11.232,6.5 12.324,6.084 12.324,6.084 C12.688,5.928 12.948,5.512 12.948,5.2 L12.948,1.508 C12.948,1.248 12.792,1.092 12.584,1.092 C12.48,1.092 12.428,1.092 12.324,1.144 L10.972,1.664 C10.66,1.664 10.296,1.352 10.296,0.728 L10.296,-4.108 C10.296,-4.472 10.556,-5.46 10.972,-5.616 L12.324,-6.136 M8.736,2.34 C8.424,3.38 5.98,4.42 4.784,4.42 C4.472,4.42 4.212,4.316 4.16,4.16 C4.056,3.952 4.004,2.808 4.004,1.56 C4.004,-0.052 4.056,-1.872 4.16,-2.288 C4.264,-3.172 6.656,-4.264 7.956,-4.264 C8.32,-4.264 8.632,-4.16 8.736,-3.952 C8.84,-3.692 8.944,-2.392 8.944,-0.988 C8.944,0.416 8.84,1.872 8.736,2.34 "/>
</g>

<g fill="#000000" fill-opacity="1" stroke="#000000" stroke-opacity="1" stroke-width="1" stroke-linecap="square" stroke-linejoin="bevel" transform="matrix(0.5,0,0,0.5,147.399,355.226)"
font-family="Bravura" font-size="52" font-weight="400" font-style="normal" 
>
<text fill="#000000" fill-opacity="1" stroke="none" xml:space="preserve" x="0" y="0" font-family=".AppleSystemUIFont" font-size="13" font-weight="400" font-style="normal" 
 ></text>
</g>

<g fill="#000000" fill-opacity="1" stroke="#000000" stroke-opacity="1" stroke-width="1" stroke-linecap="square" stroke-linejoin="bevel" transform="matrix(0.5,0,0,0.5,155.498,355.226)"
font-family="Bravura" font-size="52" font-weight="400" font-style="normal" 
>
</g>

<g fill="#000000" fill-opacity="1" stroke="none" transform="matrix(0.5,0,0,0.5,155.498,355.226)"
font-family="Bravura" font-size="52" font-weight="400" font-style="normal" 
>
<path vector-effect="none" fill-rule="nonzero" d="M5.616,7.28 C10.764,7.28 17.108,2.496 17.108,-2.444 C17.108,-5.356 14.768,-7.28 11.44,-7.28 C5.096,-7.28 0,-2.548 0,2.444 C0,5.46 2.496,7.28 5.616,7.28 "/>
</g>

<g fill="#000000" fill-opacity="1" stroke="#000000" stroke-opacity="1" stroke-width="1" stroke-linecap="square" stroke-linejoin="bevel" transform="matrix(0.5,0,0,0.5,155.498,355.226)"
font-family="Bravura" font-size="52" font-weight="400" font-style="normal" 
>
<text fill="#000000" fill-opacity="1" stroke="none" xml:space="preserve" x="0" y="0" font-family=".AppleSystemUIFont" font-size="13" font-weight="400" font-style="normal" 
 ></text>
</g>

<g fill="#000000" fill-opacity="1" stroke="#000000" stroke-opacity="1" stroke-width="1" stroke-linecap="square" stroke-linejoin="bevel" transform="matrix(0.5,0,0,0.5,207.468,351.966)"
font-family="Bravura" font-size="52" font-weight="400" font-style="normal" 
>
</g>

<g fill="#000000" fill-opacity="1" stroke="none" transform="matrix(0.5,0,0,0.5,207.468,351.966)"
font-family="Bravura" font-size="52" font-weight="400" font-style="normal" 
>
<path vector-effect="none" fill-rule="nonzero" d="M12.324,-6.136 C12.688,-6.292 12.948,-6.708 12.948,-7.02 L12.948,-10.712 C12.948,-10.972 12.792,-11.128 12.584,-11.128 C12.48,-11.128 12.428,-11.128 12.324,-11.076 C12.324,-11.076 11.284,-10.66 11.024,-10.608 C10.66,-10.608 10.296,-10.868 10.296,-11.284 L10.296,-17.628 C10.296,-17.94 9.984,-18.2 9.568,-18.2 C9.048,-18.2 8.736,-17.94 8.736,-17.628 L8.736,-10.868 C8.684,-10.348 8.528,-9.672 8.06,-9.36 C7.436,-8.996 5.668,-8.268 4.784,-8.06 C4.316,-8.06 4.16,-8.684 4.16,-9.1 L4.16,-15.34 C4.16,-15.652 3.796,-15.912 3.432,-15.912 C2.912,-15.912 2.6,-15.652 2.6,-15.34 L2.6,-8.32 C2.6,-7.592 2.288,-7.072 1.976,-6.916 C1.664,-6.76 0.624,-6.344 0.624,-6.344 C0.26,-6.24 0,-5.824 0,-5.512 L0,-1.82 C0,-1.508 0.156,-1.352 0.468,-1.352 L0.572,-1.404 C0.624,-1.404 1.404,-1.716 1.82,-1.924 L1.872,-1.976 C2.288,-1.976 2.6,-1.456 2.6,-1.04 L2.6,4.108 C2.6,4.68 2.34,5.148 2.028,5.304 C1.716,5.408 0.624,5.876 0.624,5.876 C0.26,5.98 0,6.396 0,6.708 L0,10.4 C0,10.712 0.156,10.868 0.468,10.868 L0.572,10.816 C0.624,10.816 1.352,10.504 1.82,10.348 C1.872,10.296 1.924,10.296 1.976,10.296 C2.34,10.296 2.6,10.868 2.6,11.128 L2.6,17.524 C2.6,17.836 2.912,18.096 3.276,18.096 C3.796,18.096 4.16,17.836 4.16,17.524 L4.16,10.296 C4.16,9.62 4.42,9.256 4.68,9.152 L7.852,7.852 C7.852,7.852 7.904,7.852 7.904,7.852 L8.008,7.8 C8.476,7.8 8.736,8.424 8.736,8.736 L8.736,15.236 C8.736,15.548 9.048,15.808 9.412,15.808 C9.984,15.808 10.296,15.548 10.296,15.236 L10.296,7.852 C10.296,7.436 10.504,6.812 10.868,6.656 C11.232,6.5 12.324,6.084 12.324,6.084 C12.688,5.928 12.948,5.512 12.948,5.2 L12.948,1.508 C12.948,1.248 12.792,1.092 12.584,1.092 C12.48,1.092 12.428,1.092 12.324,1.144 L10.972,1.664 C10.66,1.664 10.296,1.352 10.296,0.728 L10.296,-4.108 C10.296,-4.472 10.556,-5.46 10.972,-5.616 L12.324,-6.136 M8.736,2.34 C8.424,3.38 5.98,4.42 4.784,4.42 C4.472,4.42 4.212,4.316 4.16,4.16 C4.056,3.952 4.004,2.808 4.004,1.56 C4.004,-0.052 4.056,-1.872 4.16,-2.288 C4.264,-3.172 6.656,-4.264 7.956,-4.264 C8.32,-4.264 8.632,-4.16 8.736,-3.952 C8.84,-3.692 8.944,-2.392 8.944,-0.988 C8.944,0.416 8.84,1.872 8.736,2.34 "/>
</g>

<g fill="#000000" fill-opacity="1" stroke="#000000" stroke-opacity="1" stroke-width="1" stroke-linecap="square" stroke-linejoin="bevel" transform="matrix(0.5,0,0,0.5,207.468,351.966)"
font-family="Bravura" font-size="52" font-weight="400" font-style="normal" 
>
<text fill="#000000" fill-opacity="1" stroke="none" xml:space="preserve" x="0" y="0" font-family=".AppleSystemUIFont" font-size="13" font-weight="400" font-style="normal" 
 ></text>
</g>

<g fill="#000000" fill-opacity="1" stroke="#000000" stroke-opacity="1" stroke-width="1" stroke-linecap="square" stroke-linejoin="bevel" transform="matrix(0.5,0,0,0.5,215.567,351.966)"
font-family="Bravura" font-size="52" font-weight="400" font-style="normal" 
>
</g>

<g fill="#000000" fill-opacity="1" stroke="none" transform="matrix(0.5,0,0,0.5,215.567,351.966)"
font-family="Bravura" font-size="52" font-weight="400" font-style="normal" 
>
<path vector-effect="none" fill-rule="nonzero" d="M5.616,7.28 C10.764,7.28 17.108,2.496 17.108,-2.444 C17.108,-5.356 14.768,-7.28 11.44,-7.28 C5.096,-7.28 0,-2.548 0,2.444 C0,5.46 2.496,7.28 5.616,7.28 "/>
</g>

<g fill="#000000" fill-opacity="1" stroke="#000000" stroke-opacity="1" stroke-width="1" stroke-linecap="square" stroke-linejoin="bevel" transform="matrix(0.5,0,0,0.5,215.567,351.966)"
font-family="Bravura" font-size="52" font-weight="400" font-style="normal" 
>
<text fill="#000000" fill-opacity="1" stroke="none" xml:space="preserve" x="0" y="0" font-family=".AppleSystemUIFont" font-size="13" font-weight="400" font-style="normal" 
 ></text>
</g>

<g fill="#000000" fill-opacity="1" stroke="#000000" stroke-opacity="1" stroke-width="1" stroke-linecap="square" stroke-linejoin="bevel" transform="matrix(0.5,0,0,0.5,35.3753,409.342)"
font-family="Bravura" font-size="31" font-weight="400" font-style="normal" 
>
</g>

<g fill="#000000" fill-opacity="1" stroke="none" transform="matrix(0.5,0,0,0.5,35.3753,409.342)"
font-family="Bravura" font-size="31" font-weight="400" font-style="normal" 
>
<path vector-effect="none" fill-rule="nonzero" d="M7.285,-4.247 C2.79,-4.247 0,-2.356 0,-0.062 C0,2.201 1.922,4.216 6.944,4.216 C12.462,4.216 14.229,2.294 14.229,-0.062 C14.229,-2.449 10.416,-4.247 7.285,-4.247 M6.417,-3.472 C8.711,-3.472 10.571,-0.992 10.571,1.054 C10.571,2.759 9.517,3.441 7.998,3.441 C5.766,3.441 3.627,0.868 3.627,-1.302 C3.627,-3.038 4.836,-3.472 6.417,-3.472 "/>
</g>

<g fill="#000000" fill-opacity="1" stroke="#000000" stroke-opacity="1" stroke-width="1" stroke-linecap="square" stroke-linejoin="bevel" transform="matrix(0.5,0,0,0.5,35.3753,409.342)"
font-family="Bravura" font-size="31" font-weight="400" font-style="normal" 
>
<text fill="#000000" fill-opacity="1" stroke="none" xml:space="preserve" x="0" y="0" font-family=".AppleSystemUIFont" font-size="13" font-weight="400" font-style="normal" 
 ></text>
</g>

<g fill="#000000" fill-opacity="1" stroke="#000000" stroke-opacity="1" stroke-width="1" stroke-linecap="square" stroke-linejoin="bevel" transform="matrix(0.5,0,0,0.5,3.26,409.342)"
font-family="Bravura" font-size="31" font-weight="400" font-style="normal" 
>
</g>

<g fill="#000000" fill-opacity="1" stroke="none" transform="matrix(0.5,0,0,0.5,3.26,409.342)"
font-family="Bravura" font-size="31" font-weight="400" font-style="normal" 
>
<path vector-effect="none" fill-rule="nonzero" d="M11.656,-12.865 C11.594,-13.237 11.656,-13.268 11.842,-13.454 C15.19,-16.585 17.732,-20.522 17.732,-25.265 C17.732,-27.962 16.988,-30.628 15.717,-32.488 C15.252,-33.17 14.446,-34.038 14.105,-34.038 C13.671,-34.038 12.71,-33.232 12.09,-32.55 C9.796,-30.008 9.052,-26.133 9.052,-22.909 C9.052,-21.111 9.269,-19.096 9.486,-17.825 C9.548,-17.453 9.579,-17.391 9.207,-17.081 C4.743,-13.392 0,-8.959 0,-2.697 C0,2.697 3.689,7.812 11.284,7.812 C11.997,7.812 12.803,7.75 13.423,7.626 C13.764,7.564 13.826,7.533 13.888,7.905 C14.26,9.982 14.725,12.679 14.725,14.136 C14.725,18.724 11.625,19.282 9.796,19.282 C8.122,19.282 7.316,18.786 7.316,18.383 C7.316,18.166 7.595,18.073 8.308,17.856 C9.269,17.577 10.385,16.74 10.385,14.942 C10.385,13.237 9.3,11.78 7.409,11.78 C5.332,11.78 4.092,13.423 4.092,15.345 C4.092,17.36 5.301,20.398 9.982,20.398 C12.059,20.398 16.089,19.468 16.089,14.198 C16.089,12.431 15.531,9.486 15.19,7.564 C15.128,7.192 15.159,7.223 15.593,7.037 C18.724,5.797 20.801,3.162 20.801,-0.341 C20.801,-4.309 17.887,-7.812 13.33,-7.812 C12.524,-7.812 12.524,-7.812 12.431,-8.37 L11.656,-12.865 M14.57,-29.233 C15.593,-29.233 16.43,-28.396 16.43,-26.691 C16.43,-23.25 13.485,-20.46 11.036,-18.321 C10.819,-18.135 10.695,-18.166 10.633,-18.569 C10.509,-19.375 10.447,-20.429 10.447,-21.421 C10.447,-26.257 12.679,-29.233 14.57,-29.233 M11.191,-8.122 C11.284,-7.533 11.284,-7.564 10.726,-7.378 C7.998,-6.448 6.231,-3.999 6.231,-1.364 C6.231,1.426 7.688,3.41 9.796,4.123 C10.044,4.216 10.416,4.309 10.633,4.309 C10.881,4.309 11.005,4.154 11.005,3.968 C11.005,3.751 10.757,3.658 10.54,3.565 C9.238,3.007 8.308,1.674 8.308,0.248 C8.308,-1.519 9.517,-2.852 11.408,-3.379 C11.904,-3.503 11.966,-3.472 12.028,-3.131 L13.578,6.107 C13.64,6.448 13.609,6.448 13.144,6.541 C12.648,6.634 12.028,6.696 11.408,6.696 C5.983,6.696 2.48,3.689 2.48,-0.62 C2.48,-2.449 2.79,-4.898 5.363,-7.812 C7.223,-9.889 8.649,-11.036 10.106,-12.214 C10.416,-12.462 10.478,-12.431 10.54,-12.09 L11.191,-8.122 M13.33,-3.193 C13.268,-3.565 13.299,-3.658 13.671,-3.627 C16.182,-3.41 18.259,-1.302 18.259,1.426 C18.259,3.379 17.081,4.96 15.345,5.828 C14.973,6.014 14.911,6.014 14.849,5.642 L13.33,-3.193"/>
</g>

<g fill="#000000" fill-opacity="1" stroke="#000000" stroke-opacity="1" stroke-width="1" stroke-linecap="square" stroke-linejoin="bevel" transform="matrix(0.5,0,0,0.5,3.26,409.342)"
font-family="Bravura" font-size="31" font-weight="400" font-style="normal" 
>
<text fill="#000000" fill-opacity="1" stroke="none" xml:space="preserve" x="0" y="0" font-family=".AppleSystemUIFont" font-size="13" font-weight="400" font-style="normal" 
 ></text>
</g>

<g fill="#000000" fill-opacity="1" stroke="#000000" stroke-opacity="1" stroke-width="1" stroke-linecap="square" stroke-linejoin="bevel" transform="matrix(0.5,0,0,0.5,3.26,351.966)"
font-family="Bravura" font-size="52" font-weight="400" font-style="normal" 
>
</g>

<g fill="#000000" fill-opacity="1" stroke="none" transform="matrix(0.5,0,0,0.5,3.26,351.966)"
font-family="Bravura" font-size="52" font-weight="400" font-style="normal" 
>
<path vector-effect="none" fill-rule="nonzero" d="M19.552,-21.58 C19.448,-22.204 19.552,-22.256 19.864,-22.568 C25.48,-27.82 29.744,-34.424 29.744,-42.38 C29.744,-46.904 28.496,-51.376 26.364,-54.496 C25.584,-55.64 24.232,-57.096 23.66,-57.096 C22.932,-57.096 21.32,-55.744 20.28,-54.6 C16.432,-50.336 15.184,-43.836 15.184,-38.428 C15.184,-35.412 15.548,-32.032 15.912,-29.9 C16.016,-29.276 16.068,-29.172 15.444,-28.652 C7.956,-22.464 0,-15.028 0,-4.524 C0,4.524 6.188,13.104 18.928,13.104 C20.124,13.104 21.476,13 22.516,12.792 C23.088,12.688 23.192,12.636 23.296,13.26 C23.92,16.744 24.7,21.268 24.7,23.712 C24.7,31.408 19.5,32.344 16.432,32.344 C13.624,32.344 12.272,31.512 12.272,30.836 C12.272,30.472 12.74,30.316 13.936,29.952 C15.548,29.484 17.42,28.08 17.42,25.064 C17.42,22.204 15.6,19.76 12.428,19.76 C8.944,19.76 6.864,22.516 6.864,25.74 C6.864,29.12 8.892,34.216 16.744,34.216 C20.228,34.216 26.988,32.656 26.988,23.816 C26.988,20.852 26.052,15.912 25.48,12.688 C25.376,12.064 25.428,12.116 26.156,11.804 C31.408,9.724 34.892,5.304 34.892,-0.572 C34.892,-7.228 30.004,-13.104 22.36,-13.104 C21.008,-13.104 21.008,-13.104 20.852,-14.04 L19.552,-21.58 M24.44,-49.036 C26.156,-49.036 27.56,-47.632 27.56,-44.772 C27.56,-39 22.62,-34.32 18.512,-30.732 C18.148,-30.42 17.94,-30.472 17.836,-31.148 C17.628,-32.5 17.524,-34.268 17.524,-35.932 C17.524,-44.044 21.268,-49.036 24.44,-49.036 M18.772,-13.624 C18.928,-12.636 18.928,-12.688 17.992,-12.376 C13.416,-10.816 10.452,-6.708 10.452,-2.288 C10.452,2.392 12.896,5.72 16.432,6.916 C16.848,7.072 17.472,7.228 17.836,7.228 C18.252,7.228 18.46,6.968 18.46,6.656 C18.46,6.292 18.044,6.136 17.68,5.98 C15.496,5.044 13.936,2.808 13.936,0.416 C13.936,-2.548 15.964,-4.784 19.136,-5.668 C19.968,-5.876 20.072,-5.824 20.176,-5.252 L22.776,10.244 C22.88,10.816 22.828,10.816 22.048,10.972 C21.216,11.128 20.176,11.232 19.136,11.232 C10.036,11.232 4.16,6.188 4.16,-1.04 C4.16,-4.108 4.68,-8.216 8.996,-13.104 C12.116,-16.588 14.508,-18.512 16.952,-20.488 C17.472,-20.904 17.576,-20.852 17.68,-20.28 L18.772,-13.624 M22.36,-5.356 C22.256,-5.98 22.308,-6.136 22.932,-6.084 C27.144,-5.72 30.628,-2.184 30.628,2.392 C30.628,5.668 28.652,8.32 25.74,9.776 C25.116,10.088 25.012,10.088 24.908,9.464 L22.36,-5.356"/>
</g>

<g fill="#000000" fill-opacity="1" stroke="#000000" stroke-opacity="1" stroke-width="1" stroke-linecap="square" stroke-linejoin="bevel" transform="matrix(0.5,0,0,0.5,3.26,351.966)"
font-family="Bravura" font-size="52" font-weight="400" font-style="normal" 
>
<text fill="#000000" fill-opacity="1" stroke="none" xml:space="preserve" x="0" y="0" font-family=".AppleSystemUIFont" font-size="13" font-weight="400" font-style="normal" 
 ></text>
</g>

<g fill="#000000" fill-opacity="1" stroke="none" transform="matrix(1,0,0,1,0,-17.7097)"
font-family="Bravura" font-size="52" font-weight="400" font-style="normal" 
>
<path vector-effect="none" fill-rule="nonzero" d="M25.732,432.831 C28.0751,436.276 36.9618,435.624 38.7816,431.874 L39.0778,432.01 C37.0382,436.664 28.1514,437.316 25.4586,433.009 L25.732,432.831"/>
</g>

<g fill="#000000" fill-opacity="1" stroke="none" transform="matrix(0.5,0,0,0.5,0,308.101)"
font-family="Bravura" font-size="52" font-weight="400" font-style="normal" 
>
</g>

<g fill="#000000" fill-opacity="1" stroke="#000000" stroke-opacity="1" stroke-width="1" stroke-linecap="square" stroke-linejoin="bevel" transform="matrix(0.5,0,0,0.5,0,308.101)"
font-family="Bravura" font-size="52" font-weight="400" font-style="normal" 
>
<text fill="#000000" fill-opacity="1" stroke="none" xml:space="preserve" x="0" y="22.5313" font-family="Academico" font-size="23.472" font-weight="400" font-style="italic" 
 >4</text>
</g>

<g fill="#000000" fill-opacity="1" stroke="none" transform="matrix(0.5,0,0,0.5,0,308.101)"
font-family="Bravura" font-size="52" font-weight="400" font-style="normal" 
>
</g>

<g fill="#000000" fill-opacity="1" stroke="none" transform="matrix(1,0,0,1,0,-17.7097)"
font-family="Bravura" font-size="52" font-weight="400" font-style="normal" 
>
</g>

<g fill="#000000" fill-opacity="1" stroke="#000000" stroke-opacity="1" stroke-width="2" stroke-linecap="butt" stroke-linejoin="miter" stroke-miterlimit="2" transform="matrix(1,0,0,1,0,-17.7097)"
font-family="Bravura" font-size="52" font-weight="400" font-style="normal" 
>
</g>
</g>
</svg>
