<svg width="45" height="40" viewBox="0 0 45 40" fill="none" xmlns="http://www.w3.org/2000/svg">
<path d="M2.5 20C2.5 9.23045 11.2304 0.5 22 0.5C32.7696 0.5 41.5 9.23045 41.5 20C41.5 30.7696 32.7696 39.5 22 39.5C11.2304 39.5 2.5 30.7696 2.5 20Z" stroke="#646464"/>
<path d="M29.0607 21.0607C29.6464 20.4749 29.6464 19.5251 29.0607 18.9393L19.5147 9.3934C18.9289 8.80761 17.9792 8.80761 17.3934 9.3934C16.8076 9.97919 16.8076 10.9289 17.3934 11.5147L25.8787 20L17.3934 28.4853C16.8076 29.0711 16.8076 30.0208 17.3934 30.6066C17.9792 31.1924 18.9289 31.1924 19.5147 30.6066L29.0607 21.0607ZM26 21.5L28 21.5L28 18.5L26 18.5L26 21.5Z" fill="white"/>
</svg>
